<?xml version="1.0" standalone="no"?>
<!DOCTYPE svg PUBLIC "-//W3C//DTD SVG 20010904//EN"
 "http://www.w3.org/TR/2001/REC-SVG-20010904/DTD/svg10.dtd">
<svg version="1.0" xmlns="http://www.w3.org/2000/svg"
 width="363.000000pt" height="363.000000pt" viewBox="0 0 363.000000 363.000000"
 preserveAspectRatio="xMidYMid meet">
<metadata>
Created by potrace 1.14, written by Peter Selinger 2001-2017
</metadata>
<g transform="translate(0.000000,363.000000) scale(0.100000,-0.100000)"
fill="#000000" stroke="none">
<path d="M1768 3595 c-2 -1 -41 -5 -88 -9 -47 -3 -95 -8 -106 -10 -12 -2 -38
-7 -59 -10 -177 -28 -422 -125 -588 -232 -150 -97 -319 -248 -402 -359 -16
-22 -33 -42 -36 -45 -14 -12 -129 -195 -129 -206 0 -7 -3 -14 -8 -16 -8 -3
-60 -116 -92 -198 -39 -104 -72 -238 -86 -346 -7 -63 -11 -89 -14 -89 -4 0 -5
-231 -1 -240 3 -5 6 -30 7 -55 2 -48 9 -96 22 -157 5 -21 8 -50 8 -65 -1 -14
2 -24 6 -22 8 5 10 -7 11 -53 1 -12 5 -20 9 -17 4 3 8 -4 8 -16 0 -12 7 -34
15 -50 9 -17 13 -30 10 -30 -3 0 6 -23 21 -51 14 -28 23 -58 20 -66 -3 -8 -1
-11 4 -8 9 5 12 -1 9 -21 0 -4 3 -10 8 -13 4 -3 21 -31 37 -61 16 -30 38 -67
48 -82 11 -16 16 -33 12 -39 -4 -7 -3 -9 3 -6 5 3 20 -12 34 -33 13 -22 27
-40 32 -40 4 0 7 -4 7 -10 0 -5 18 -29 40 -52 22 -24 40 -47 40 -51 0 -5 7
-15 15 -23 8 -9 15 -13 15 -9 0 3 18 -15 40 -40 22 -25 40 -44 40 -42 0 3 15
-9 33 -26 17 -16 31 -34 29 -39 -1 -5 1 -7 6 -4 4 3 24 -8 43 -25 19 -16 38
-29 42 -29 5 0 5 -6 1 -12 -4 -7 -4 -10 1 -6 10 9 47 -10 40 -21 -2 -5 3 -8
13 -7 11 1 16 -6 15 -18 -1 -12 2 -15 9 -8 11 11 100 -37 126 -68 9 -10 11
-10 6 -1 -4 8 23 -2 60 -22 36 -20 66 -33 66 -30 0 3 7 0 15 -7 8 -7 12 -17 8
-24 -4 -8 -3 -8 6 0 14 13 51 7 51 -8 0 -5 4 -7 10 -3 5 3 24 -1 43 -9 19 -7
53 -17 76 -21 22 -4 41 -11 41 -16 0 -4 7 -6 15 -3 19 8 47 -14 38 -29 -3 -6
-1 -7 6 -3 6 4 9 12 5 17 -3 6 6 8 23 5 107 -19 163 -26 196 -26 23 0 36 -4
32 -10 -3 -5 -1 -10 4 -10 6 0 11 4 11 10 0 5 10 8 23 6 12 -1 22 -8 22 -14 0
-6 3 -14 7 -18 4 -3 6 3 3 15 -2 11 0 21 4 21 12 0 32 -26 26 -32 -3 -3 2 -11
12 -19 15 -12 16 -12 8 1 -24 39 -16 46 50 48 35 1 84 6 109 11 35 6 48 5 62
-8 16 -15 17 -15 6 0 -11 15 -7 17 33 23 25 4 49 4 55 1 5 -3 10 -1 10 5 0 6
5 8 10 5 6 -3 10 -1 10 4 0 6 3 10 8 9 4 -1 25 3 47 7 56 13 54 12 60 15 3 1
8 3 13 5 4 1 21 7 37 14 42 18 78 24 71 12 -4 -5 -2 -12 3 -15 4 -3 8 4 7 17
-1 13 5 22 14 22 8 0 17 2 20 5 3 3 37 21 75 40 84 42 165 89 184 108 7 7 21
10 29 7 9 -3 13 -3 9 1 -11 11 13 34 35 34 10 0 17 4 13 10 -3 5 7 17 22 27
15 10 45 33 66 53 21 19 43 34 48 32 5 -1 8 1 7 5 -2 5 1 9 7 10 5 1 13 11 17
23 4 12 12 18 18 15 6 -4 9 -2 8 3 -4 14 95 121 106 115 5 -3 6 -1 2 5 -8 14
68 114 79 104 5 -4 5 -1 1 5 -10 18 35 81 54 76 12 -4 12 -3 2 5 -11 7 -9 17
8 48 12 21 26 44 30 49 4 6 15 31 25 57 10 26 21 45 26 43 4 -3 11 0 15 6 5 8
3 9 -6 4 -15 -9 -5 28 17 64 8 13 10 20 4 17 -7 -5 -9 -1 -5 8 3 9 11 16 17
16 6 0 7 3 4 7 -4 3 1 12 11 20 9 8 11 12 5 8 -16 -8 -16 5 -1 42 6 15 10 34
9 42 -1 7 1 11 6 8 4 -3 9 9 9 26 2 36 11 90 20 127 9 32 12 65 14 118 1 27 5
40 12 36 7 -5 8 -2 2 7 -12 20 -12 89 1 89 7 0 7 3 -1 8 -5 4 -10 30 -10 57
-1 55 -11 172 -18 208 -62 292 -140 481 -287 690 -64 92 -230 268 -324 344
-190 154 -503 295 -725 329 -19 3 -42 7 -50 9 -27 7 -296 25 -302 20z"/>
<path d="M333 1135 c0 -8 4 -12 9 -9 5 3 6 10 3 15 -9 13 -12 11 -12 -6z"/>
<path d="M2986 708 c3 -5 10 -6 15 -3 13 9 11 12 -6 12 -8 0 -12 -4 -9 -9z"/>
<path d="M650 689 c0 -5 5 -7 10 -4 6 3 10 8 10 11 0 2 -4 4 -10 4 -5 0 -10
-5 -10 -11z"/>
<path d="M2915 670 c-3 -5 -1 -10 4 -10 6 0 11 5 11 10 0 6 -2 10 -4 10 -3 0
-8 -4 -11 -10z"/>
<path d="M2950 669 c0 -5 5 -7 10 -4 6 3 10 8 10 11 0 2 -4 4 -10 4 -5 0 -10
-5 -10 -11z"/>
<path d="M766 588 c3 -5 10 -6 15 -3 13 9 11 12 -6 12 -8 0 -12 -4 -9 -9z"/>
<path d="M716 548 c3 -5 10 -6 15 -3 13 9 11 12 -6 12 -8 0 -12 -4 -9 -9z"/>
<path d="M796 552 c-3 -5 1 -9 9 -9 8 0 12 4 9 9 -3 4 -7 8 -9 8 -2 0 -6 -4
-9 -8z"/>
<path d="M2770 529 c0 -5 5 -7 10 -4 6 3 10 8 10 11 0 2 -4 4 -10 4 -5 0 -10
-5 -10 -11z"/>
<path d="M796 512 c-3 -5 1 -9 9 -9 8 0 12 4 9 9 -3 4 -7 8 -9 8 -2 0 -6 -4
-9 -8z"/>
<path d="M2705 510 c-3 -6 1 -7 9 -4 18 7 21 14 7 14 -6 0 -13 -4 -16 -10z"/>
<path d="M895 490 c-3 -5 -1 -10 4 -10 6 0 11 5 11 10 0 6 -2 10 -4 10 -3 0
-8 -4 -11 -10z"/>
<path d="M950 496 c0 -2 7 -7 16 -10 8 -3 12 -2 9 4 -6 10 -25 14 -25 6z"/>
<path d="M2693 455 c0 -8 4 -12 9 -9 5 3 6 10 3 15 -9 13 -12 11 -12 -6z"/>
<path d="M995 450 c3 -5 8 -10 11 -10 2 0 4 5 4 10 0 6 -5 10 -11 10 -5 0 -7
-4 -4 -10z"/>
<path d="M2530 389 c0 -5 5 -7 10 -4 6 3 10 8 10 11 0 2 -4 4 -10 4 -5 0 -10
-5 -10 -11z"/>
<path d="M2316 331 c-3 -5 2 -15 12 -22 15 -12 16 -12 5 2 -7 9 -10 19 -6 22
3 4 4 7 0 7 -3 0 -8 -4 -11 -9z"/>
<path d="M1315 310 c-3 -5 -1 -10 4 -10 6 0 11 5 11 10 0 6 -2 10 -4 10 -3 0
-8 -4 -11 -10z"/>
<path d="M2230 310 c0 -5 9 -8 20 -7 21 1 18 10 -5 13 -8 1 -15 -2 -15 -6z"/>
<path d="M1250 289 c0 -5 5 -7 10 -4 6 3 10 8 10 11 0 2 -4 4 -10 4 -5 0 -10
-5 -10 -11z"/>
<path d="M2110 286 c0 -2 8 -10 18 -17 15 -13 16 -12 3 4 -13 16 -21 21 -21
13z"/>
<path d="M1390 266 c7 -7 13 -7 20 0 6 6 3 10 -10 10 -13 0 -16 -4 -10 -10z"/>
<path d="M1590 270 c0 -5 5 -10 11 -10 5 0 7 5 4 10 -3 6 -8 10 -11 10 -2 0
-4 -4 -4 -10z"/>
<path d="M1550 247 c0 -2 6 -10 14 -16 11 -9 16 -9 22 1 4 7 4 10 -1 6 -4 -4
-14 -3 -22 3 -7 6 -13 9 -13 6z"/>
<path d="M2195 239 c-4 -6 -5 -12 -2 -15 2 -3 7 2 10 11 7 17 1 20 -8 4z"/>
<path d="M1670 226 c7 -7 13 -7 20 0 6 6 3 10 -10 10 -13 0 -16 -4 -10 -10z"/>
<path d="M1716 232 c-3 -5 1 -9 9 -9 8 0 12 4 9 9 -3 4 -7 8 -9 8 -2 0 -6 -4
-9 -8z"/>
<path d="M1996 228 c3 -5 10 -6 15 -3 13 9 11 12 -6 12 -8 0 -12 -4 -9 -9z"/>
<path d="M2256 223 c-6 -14 -5 -15 5 -6 7 7 10 15 7 18 -3 3 -9 -2 -12 -12z"/>
<path d="M1810 209 c0 -5 5 -7 10 -4 6 3 10 8 10 11 0 2 -4 4 -10 4 -5 0 -10
-5 -10 -11z"/>
<path d="M2090 216 c0 -2 7 -7 16 -10 8 -3 12 -2 9 4 -6 10 -25 14 -25 6z"/>
<path d="M1950 196 c0 -2 7 -7 16 -10 8 -3 12 -2 9 4 -6 10 -25 14 -25 6z"/>
</g>
</svg>
